<svg data-v-0dd9719b="" version="1.0" xmlns="http://www.w3.org/2000/svg" xmlns:xlink="http://www.w3.org/1999/xlink" width="100%" height="100%" viewBox="0 0 340.000000 250.000000" preserveAspectRatio="xMidYMid meet" color-interpolation-filters="sRGB" style="margin: auto;"> <rect data-v-0dd9719b="" x="0" y="0" width="100%" height="100%" fill="#fefdfd" fill-opacity="1" class="background"></rect> <rect data-v-0dd9719b="" x="0" y="0" width="100%" height="100%" fill="url(#watermark)" fill-opacity="1" class="watermarklayer"></rect> <g data-v-0dd9719b="" fill="#a1bfa1" class="icon-text-wrapper icon-svg-group iconsvg" transform="translate(75.82499694824219,92.55879974365234)"><g class="iconsvg-imagesvg" transform="translate(0,0)"><g><rect fill="#a1bfa1" fill-opacity="0" stroke-width="2" x="0" y="0" width="60" height="64.882400648824" class="image-rect"></rect> <svg filter="url(#colors616880431)" x="0" y="0" width="60" height="64.882400648824" filtersec="colorsf2708125943" class="image-svg-svg primary" style="overflow: visible;"><svg xmlns="http://www.w3.org/2000/svg" viewBox="1.4240000247955322 0.5 91.48699188232422 98.9320068359375"><path fill="#333333" d="M1.424 28.569v39.599L21.22 36.82 1.424 28.569zM40.25 4.136L3.708 25.022l19.7 8.211L40.25 4.136zM89.69 24.484L54.078 4.129l16.808 29.035 18.803-8.68zM66.436 33.77L47.17.5h-.007L27.9 33.771h38.537zM24.173 39.94L3.018 73.432 43.562 75.2l-19.389-35.26zm3.637-2.015l19.354 35.19 19.355-35.19h-38.71zm45.25-1.18l19.851 31.43V27.582L73.06 36.745zm-22.294 38.46l40.551-1.773L70.162 39.94 50.766 75.206zm-1.518 24.227l37.895-21.66-37.895 1.65v20.01zm-4.16 0V79.415L7.184 77.772l37.902 21.66z"></path></svg></svg> <defs><filter id="colors616880431"><feColorMatrix type="matrix" values="0 0 0 0 0.1484375  0 0 0 0 0.21875  0 0 0 0 0.41015625  0 0 0 1 0" class="icon-fecolormatrix"></feColorMatrix></filter> <filter id="colorsf2708125943"><feColorMatrix type="matrix" values="0 0 0 0 0.99609375  0 0 0 0 0.99609375  0 0 0 0 0.99609375  0 0 0 1 0" class="icon-fecolormatrix"></feColorMatrix></filter> <filter id="colorsb9572833476"><feColorMatrix type="matrix" values="0 0 0 0 0  0 0 0 0 0  0 0 0 0 0  0 0 0 1 0" class="icon-fecolormatrix"></feColorMatrix></filter></defs></g></g> <g transform="translate(67,8.636199951171875)"><g data-gra="path-name" fill-rule="" class="tp-name iconsvg-namesvg"><g transform="scale(1)"><g><path d="M43.42-46.57L43.42 0 37.08 0 37.08-21.19 11.99-21.19 11.99 0 5.66 0 5.66-46.57 11.99-46.57 11.99-25.8 37.08-25.8 37.08-46.57 43.42-46.57ZM80.18-42.28L78.65-39.29Q78.36-38.8 78.03-38.56 77.71-38.32 77.19-38.32L77.19-38.32Q76.64-38.32 75.9-38.87 75.17-39.42 74.05-40.09 72.93-40.76 71.35-41.31 69.78-41.86 67.53-41.86L67.53-41.86Q65.42-41.86 63.8-41.29 62.17-40.72 61.08-39.75 60-38.77 59.44-37.46 58.89-36.14 58.89-34.61L58.89-34.61Q58.89-32.66 59.85-31.38 60.81-30.1 62.38-29.19 63.96-28.28 65.96-27.61 67.96-26.94 70.05-26.23 72.15-25.51 74.15-24.62 76.15-23.73 77.72-22.36 79.3-21 80.26-19.01 81.22-17.03 81.22-14.14L81.22-14.14Q81.22-11.08 80.18-8.4 79.14-5.72 77.14-3.74 75.14-1.76 72.23-0.62 69.32 0.52 65.62 0.52L65.62 0.52Q61.1 0.52 57.38-1.12 53.66-2.76 51.02-5.56L51.02-5.56 52.84-8.55Q53.11-8.91 53.48-9.15 53.85-9.39 54.31-9.39L54.31-9.39Q54.99-9.39 55.87-8.66 56.75-7.93 58.06-7.05 59.38-6.17 61.25-5.44 63.12-4.71 65.81-4.71L65.81-4.71Q68.06-4.71 69.81-5.33 71.56-5.95 72.78-7.07 74-8.19 74.65-9.75 75.3-11.31 75.3-13.23L75.3-13.23Q75.3-15.34 74.34-16.69 73.39-18.04 71.83-18.95 70.27-19.86 68.27-20.49 66.27-21.13 64.17-21.79 62.08-22.46 60.08-23.34 58.08-24.21 56.52-25.61 54.96-27.01 54-29.1 53.04-31.2 53.04-34.29L53.04-34.29Q53.04-36.76 54-39.07 54.96-41.37 56.78-43.16 58.6-44.95 61.28-46.02 63.96-47.09 67.44-47.09L67.44-47.09Q71.34-47.09 74.56-45.86 77.77-44.62 80.18-42.28L80.18-42.28ZM127.01-46.57L127.01 0 120.67 0 120.67-21.19 95.58-21.19 95.58 0 89.25 0 89.25-46.57 95.58-46.57 95.58-25.8 120.67-25.8 120.67-46.57 127.01-46.57Z" transform="translate(-5.659999847412109, 47.09000015258789)"></path></g> <!----> <!----> <!----> <!----> <!----> <!----> <!----></g></g> <!----></g></g><defs v-gra="od"></defs></svg>